<?xml version="1.0" standalone="no"?>
<!DOCTYPE svg PUBLIC "-//W3C//DTD SVG 20010904//EN"
 "http://www.w3.org/TR/2001/REC-SVG-20010904/DTD/svg10.dtd">
<svg version="1.0" xmlns="http://www.w3.org/2000/svg"
 width="500.000000pt" height="500.000000pt" viewBox="0 0 500.000000 500.000000"
 preserveAspectRatio="xMidYMid meet">

<g transform="translate(0.000000,500.000000) scale(0.100000,-0.100000)"
fill="#000000" stroke="none">
<path d="M2330 4550 c0 -12 8 -12 35 0 18 8 17 9 -7 9 -16 1 -28 -3 -28 -9z"/>
<path d="M2351 4479 c-6 -18 -11 -52 -11 -76 0 -24 -3 -42 -8 -39 -4 2 -4 -44
0 -102 5 -68 5 -117 -2 -136 -5 -16 -10 -60 -10 -97 0 -55 -3 -69 -15 -69 -8
0 -15 4 -15 9 0 5 -19 20 -42 34 -24 14 -64 46 -91 71 -55 53 -81 61 -45 14
14 -18 36 -58 50 -88 14 -30 59 -108 101 -172 43 -64 77 -120 77 -123 0 -4 9
-19 20 -35 11 -15 36 -58 56 -96 20 -37 47 -84 60 -103 l24 -36 -33 -7 c-18
-4 -89 -36 -158 -72 -69 -36 -133 -66 -142 -66 -14 0 -14 -5 3 -42 15 -36 60
-309 60 -369 0 -13 -8 -17 -31 -17 -27 1 -33 7 -60 64 -17 35 -32 73 -34 84
-2 12 -6 29 -9 38 -2 9 -7 73 -11 142 -5 96 -10 127 -21 135 -118 77 -109 73
-135 53 -18 -15 -35 -19 -76 -16 -61 4 -63 1 -63 -103 0 -53 -4 -69 -20 -84
-15 -14 -23 -16 -32 -7 -23 23 -68 167 -68 219 0 18 -4 33 -10 33 -5 0 -10 8
-10 18 0 15 2 15 11 2 8 -12 9 -11 7 5 -2 11 -11 19 -20 19 -10 -1 -14 4 -11
12 7 19 9 18 44 -18 l31 -33 -21 31 c-20 31 -20 31 -1 49 15 14 20 15 20 4 1
-24 49 42 91 123 25 51 48 82 66 92 16 8 45 32 66 55 24 26 47 41 61 41 22 0
43 25 28 33 -4 2 -30 5 -58 6 -52 2 -52 2 -94 -51 -23 -29 -70 -102 -105 -163
-83 -143 -91 -154 -104 -135 -6 8 -13 32 -16 52 -4 21 -11 38 -16 38 -5 0 -9
7 -9 16 0 8 -4 13 -9 10 -5 -3 -12 4 -16 17 l-6 22 -9 -25 c-5 -14 -11 -55
-15 -92 -7 -73 -24 -99 -50 -78 -12 10 -15 10 -15 -3 0 -26 39 -208 72 -331
25 -95 30 -126 22 -155 -11 -43 -7 -104 7 -96 5 4 9 13 9 21 0 22 29 50 34 32
2 -7 9 -32 15 -54 13 -50 46 -71 39 -26 -4 28 -4 28 24 14 15 -7 32 -22 38
-31 9 -18 12 -130 3 -163 -6 -23 -45 -18 -49 6 -1 10 -10 27 -20 37 -17 19
-17 20 0 13 16 -6 17 -4 8 12 -11 20 -72 82 -72 72 0 -21 24 -67 32 -62 6 4 9
1 6 -7 -3 -8 15 -53 39 -101 23 -48 43 -91 43 -95 0 -5 16 -24 35 -43 30 -29
35 -41 33 -72 -1 -21 -5 -38 -10 -38 -11 0 -57 51 -73 80 -19 37 -131 141
-147 136 -7 -3 -26 11 -42 31 -22 26 -26 37 -16 43 15 9 5 30 -16 30 -8 0 -12
5 -9 10 4 6 -5 26 -20 45 -26 36 -52 47 -41 20 4 -12 0 -14 -21 -9 -20 6 -24
4 -18 -7 6 -11 5 -12 -6 -1 -17 16 -29 15 -29 -2 0 -14 75 -57 84 -48 3 2 1
14 -5 26 -8 17 -6 16 10 -4 33 -41 -10 -70 -51 -33 -17 15 -18 15 -18 -3 1
-10 23 -44 50 -74 45 -50 55 -68 51 -93 -1 -5 8 -23 19 -42 23 -37 25 -49 8
-39 -7 4 2 -9 21 -29 29 -30 33 -41 29 -76 -2 -27 0 -41 8 -41 7 0 27 -16 46
-35 22 -24 45 -38 70 -42 49 -7 82 -42 99 -101 7 -26 21 -53 31 -60 12 -9 16
-21 12 -36 -3 -14 1 -29 10 -39 14 -14 21 -14 55 -2 38 13 39 13 72 -21 23
-23 30 -37 22 -42 -6 -4 -14 -19 -18 -34 -6 -23 -4 -27 14 -25 12 1 21 5 21
10 0 4 4 6 9 2 9 -5 51 40 51 54 0 3 -20 14 -45 24 -25 11 -45 26 -45 34 0 8
-4 11 -10 8 -5 -3 -10 -2 -10 3 0 6 -20 31 -45 56 -32 34 -45 55 -45 76 0 16
-5 32 -11 36 -6 3 -9 15 -6 25 3 11 1 17 -4 13 -14 -8 -11 9 6 33 11 16 31 25
68 30 l52 8 -60 5 c-52 4 -60 8 -63 27 -2 13 5 29 18 40 12 10 28 30 36 46 9
17 23 27 36 27 14 0 18 4 13 9 -6 5 -22 7 -36 4 -20 -4 -26 -11 -26 -30 0 -22
-16 -42 -34 -43 -3 0 -11 12 -18 26 -15 34 1 61 53 89 36 19 66 15 69 -10 0
-5 11 -18 24 -28 13 -11 33 -38 45 -60 24 -47 50 -136 42 -148 -2 -4 0 -11 6
-14 6 -4 8 -16 5 -28 -4 -12 -9 -30 -12 -41 -3 -12 -1 -16 6 -12 7 5 9 1 5 -8
-4 -11 0 -16 11 -16 11 0 15 -5 11 -16 -3 -8 -2 -13 3 -10 5 3 12 -6 16 -21 4
-17 2 -29 -7 -34 -10 -6 -9 -11 5 -21 10 -8 17 -18 16 -23 -2 -6 3 -28 9 -50
7 -22 12 -53 12 -69 0 -23 -3 -27 -17 -21 -20 9 -32 10 -118 7 -52 -2 -62 -5
-71 -24 -7 -17 -6 -29 5 -47 19 -30 20 -38 26 -128 6 -89 -4 -93 -63 -29 l-40
44 5 -34 c5 -31 3 -35 -26 -47 -25 -10 -28 -16 -18 -26 6 -6 12 -24 12 -39 0
-17 5 -26 14 -24 7 1 21 -6 31 -18 9 -11 29 -20 43 -20 37 0 43 -17 18 -51
-13 -18 -16 -26 -7 -23 8 3 25 -6 37 -20 25 -26 146 -90 193 -102 14 -3 24
-10 21 -14 -3 -5 2 -15 10 -23 19 -19 20 -41 1 -34 -10 4 -16 -7 -21 -39 -3
-24 -3 -49 0 -54 11 -18 25 0 25 31 l0 30 26 -20 c15 -11 30 -18 35 -15 10 6
7 32 -4 51 -6 9 -3 11 10 6 10 -4 20 -9 23 -12 3 -4 19 -12 35 -19 l30 -13
-30 25 c-16 14 -54 37 -84 51 -37 18 -51 29 -42 34 17 11 10 66 -9 66 -22 0
-93 26 -105 37 -30 31 154 -36 194 -70 17 -15 44 -37 60 -49 15 -12 36 -38 45
-57 12 -26 24 -35 52 -41 46 -8 56 2 45 45 -5 19 -14 67 -20 106 -6 39 -14 79
-17 89 -7 17 -2 18 62 12 38 -3 82 -11 97 -18 21 -9 30 -9 42 1 17 14 18 20 6
39 -8 13 -12 13 -28 1 -15 -12 -14 -11 2 9 11 12 27 42 36 64 13 32 22 42 40
43 13 1 44 2 67 3 l44 1 -5 80 c-3 44 -11 88 -18 96 -10 12 -10 17 -1 23 9 5
10 15 4 31 -5 14 -11 19 -16 12 -3 -6 -2 -13 4 -17 6 -4 7 -11 4 -17 -4 -6
-10 -5 -15 3 -10 16 -5 -50 11 -130 12 -65 12 -71 1 -71 -5 0 -12 30 -16 67
-4 38 -22 115 -41 173 -29 88 -36 129 -45 250 -11 168 -25 249 -44 256 -7 3
-16 21 -19 40 -4 19 -12 34 -17 34 -6 0 -3 7 5 16 20 19 20 20 0 28 -12 5 -15
2 -10 -9 3 -9 2 -13 -4 -10 -15 9 -12 32 6 39 8 3 12 2 9 -4 -3 -6 1 -10 9
-10 18 0 21 16 6 25 -6 3 -8 17 -6 31 3 13 1 38 -4 56 -7 21 -6 36 1 45 9 10
8 13 -2 13 -12 0 -12 2 0 9 9 6 10 11 2 15 -6 4 -11 22 -11 39 0 18 -4 48 -9
67 -5 19 -12 60 -15 90 -6 52 -5 51 14 -23 11 -43 24 -86 29 -95 9 -17 14 -43
27 -137 3 -27 11 -61 16 -75 5 -14 9 -27 8 -29 -1 -2 3 -7 9 -10 6 -4 22 -59
36 -121 32 -143 35 -150 32 -73 -1 35 2 62 7 62 5 0 12 4 15 10 4 5 12 6 20 2
10 -6 10 -17 1 -51 -7 -25 -9 -74 -6 -119 5 -63 4 -70 -5 -41 -17 58 -25 53
-19 -10 6 -66 26 -101 36 -62 4 12 10 22 15 22 15 0 22 -71 10 -108 -7 -21
-11 -66 -9 -101 2 -53 6 -65 23 -71 19 -7 20 -4 16 33 -3 31 0 38 10 32 11 -6
11 -5 3 4 -8 9 -8 19 0 36 l11 23 18 -26 19 -27 -6 24 c-3 14 0 31 6 38 9 11
15 7 32 -19 19 -31 21 -32 24 -10 3 20 -2 50 -42 231 -8 35 -18 66 -24 70 -5
3 -13 26 -17 51 -4 25 -13 56 -20 69 l-12 25 -7 -22 c-4 -12 -12 -20 -17 -16
-5 3 -7 9 -4 14 7 11 -31 51 -39 43 -16 -17 -3 21 19 53 24 35 24 38 8 51 -10
8 -13 12 -7 9 7 -3 14 5 16 19 3 13 1 22 -3 19 -5 -3 -10 1 -10 8 -1 7 -2 20
-3 28 -1 8 3 21 9 29 7 11 7 13 -2 7 -8 -4 -13 -2 -13 5 0 8 -4 8 -13 1 -10
-8 -16 -6 -25 9 -10 16 -10 19 5 19 14 0 12 5 -8 28 -13 15 -17 21 -9 15 8 -7
21 -13 30 -13 13 0 13 1 0 10 -10 7 -11 10 -2 10 7 0 18 -12 24 -26 l12 -26
10 24 c8 20 11 14 21 -42 7 -36 13 -59 14 -52 0 7 9 16 19 19 19 8 174 137
209 175 12 13 29 40 38 60 l15 38 -26 -10 c-39 -15 -41 -13 -38 38 2 46 0 50
-43 85 -25 20 -52 37 -59 37 -8 0 -11 7 -8 18 3 9 -7 -6 -24 -34 -16 -29 -39
-66 -51 -83 -12 -17 -26 -58 -32 -93 -5 -35 -14 -73 -21 -85 -9 -19 -13 -20
-25 -8 -8 8 -21 18 -30 23 -11 7 -13 14 -5 28 7 14 6 23 -6 34 -14 13 -15 12
-9 -4 6 -14 2 -17 -21 -16 -46 3 -48 0 -17 -25 23 -19 26 -25 12 -25 -21 0
-67 28 -67 42 0 5 5 6 11 2 8 -4 9 0 4 15 -4 12 0 30 9 43 13 18 16 19 16 6 0
-9 -4 -20 -10 -23 -5 -3 -10 -11 -10 -17 0 -7 9 -2 21 11 12 12 18 25 15 28
-3 3 0 13 7 21 10 13 9 15 -6 9 -10 -4 -16 -3 -13 2 3 5 -1 14 -8 20 -12 10
-13 8 -9 -9 6 -24 -14 -24 -35 0 -14 15 -13 1 4 -65 5 -19 5 -19 -10 -1 -10
12 -14 34 -11 67 2 41 1 48 -10 39 -12 -10 -12 -6 -2 20 6 17 13 26 15 20 2
-5 8 -10 14 -10 5 0 0 12 -11 26 -11 14 -17 32 -14 40 3 8 0 14 -6 14 -7 0
-11 6 -10 13 3 16 -9 42 -44 100 -16 26 -26 54 -23 62 3 8 1 15 -5 15 -6 0 -9
7 -5 15 3 8 1 15 -4 15 -10 0 -41 100 -34 112 3 4 10 8 15 8 6 0 8 -4 5 -9 -6
-9 32 -20 51 -14 14 5 -5 83 -20 83 -6 0 -4 6 4 13 32 25 87 114 99 157 13 47
16 45 35 -30 l11 -45 27 42 c21 33 34 43 64 49 21 4 55 15 75 25 21 11 44 19
52 19 18 0 76 -90 76 -119 0 -12 5 -32 11 -43 9 -17 8 -28 -7 -55 -26 -49 -54
-42 -69 17 -17 65 -41 107 -66 113 -16 4 -19 3 -10 -6 6 -6 11 -23 11 -38 0
-15 3 -29 8 -31 4 -1 17 -18 30 -35 18 -26 21 -40 16 -73 -9 -53 -21 -42 -29
25 -7 52 -16 67 -30 45 -11 -18 -45 -11 -45 9 0 11 4 23 10 26 6 4 5 13 -2 25
-9 14 -9 22 2 37 8 10 -7 -4 -33 -31 -32 -33 -46 -54 -42 -65 4 -9 11 -43 16
-76 5 -33 16 -85 25 -115 8 -30 19 -86 24 -123 9 -77 18 -92 50 -82 31 10 60
63 60 111 0 22 9 73 19 112 17 65 24 77 67 114 114 97 161 154 203 243 50 104
53 157 11 184 -24 15 -24 15 -11 -2 12 -15 11 -17 -8 -17 -11 0 -21 -4 -21 -8
0 -4 -29 -31 -65 -60 -36 -28 -65 -47 -65 -42 0 5 28 39 61 75 34 36 58 65 54
65 -4 0 -34 -20 -67 -45 -33 -25 -63 -45 -68 -45 -18 0 -32 32 -29 72 5 82 0
118 -16 118 -25 0 -52 -34 -44 -56 3 -10 4 -22 2 -27 -2 -4 1 -6 7 -5 7 2 17
-5 23 -14 14 -22 3 -34 -40 -43 -26 -5 -33 -3 -33 8 0 9 -6 17 -12 20 -10 3
-8 10 5 25 10 11 14 23 9 26 -17 10 -54 -44 -48 -70 5 -19 2 -24 -12 -24 -11
0 -27 -9 -37 -20 -29 -32 -37 -24 -33 29 2 40 0 51 -13 54 -10 3 -19 20 -23
43 -4 22 -16 57 -26 79 -10 22 -30 66 -44 98 -15 32 -30 55 -35 52 -6 -3 -14
2 -19 11 -8 15 -12 15 -39 0 -42 -21 -59 -66 -25 -66 14 0 15 -2 2 -10 -8 -5
-11 -10 -6 -10 5 0 3 -6 -3 -14 -8 -10 -8 -21 -1 -40 5 -15 10 -34 10 -42 0
-24 -20 -16 -31 14 -24 59 -51 112 -60 117 -5 4 -9 18 -8 33 1 34 -29 200 -41
221 -4 9 -16 55 -25 104 -14 70 -21 87 -35 87 -11 0 -22 -12 -29 -31z m246
-404 c0 -8 -4 -12 -9 -9 -5 3 -6 10 -3 15 9 13 12 11 12 -6z m-350 -94 c49
-41 56 -55 45 -96 l-9 -30 -13 38 c-8 20 -17 37 -21 37 -4 0 -12 14 -19 30 -7
17 -21 35 -31 41 -11 5 -19 14 -19 20 0 13 14 5 67 -40z m142 -158 c12 -18 19
-33 14 -33 -9 0 -43 52 -43 66 0 9 -1 9 29 -33z m151 11 c0 -8 -4 -12 -10 -9
-5 3 -10 13 -10 21 0 8 5 12 10 9 6 -3 10 -13 10 -21z m-120 -75 c0 -6 -4 -7
-10 -4 -5 3 -10 11 -10 16 0 6 5 7 10 4 6 -3 10 -11 10 -16z m123 -116 c-7 -2
-13 -11 -13 -19 0 -9 5 -12 10 -9 12 7 12 3 4 -19 -7 -19 -20 -21 -27 -3 -7
18 10 57 25 56 10 0 10 -2 1 -6z m37 -29 c0 -8 -4 -14 -10 -14 -5 0 -10 9 -10
21 0 11 5 17 10 14 6 -3 10 -13 10 -21z m20 -44 c0 -5 -2 -10 -4 -10 -3 0 -8
5 -11 10 -3 6 -1 10 4 10 6 0 11 -4 11 -10z m-20 -50 c0 -6 -7 -10 -15 -10 -8
0 -15 2 -15 4 0 2 -3 12 -7 21 -5 15 -3 16 15 6 12 -7 22 -16 22 -21z m-1050
-95 c0 -8 -2 -15 -4 -15 -2 0 -6 7 -10 15 -3 8 -1 15 4 15 6 0 10 -7 10 -15z
m1043 -55 l22 -35 -27 20 c-15 11 -28 24 -28 28 0 5 -4 5 -10 2 -5 -3 -10 1
-10 10 0 27 29 13 53 -25z m-979 -175 c-4 -8 -8 -15 -10 -15 -2 0 -4 7 -4 15
0 8 4 15 10 15 5 0 7 -7 4 -15z m976 -41 c0 -9 -37 15 -51 33 -10 12 -5 11 19
-6 17 -12 32 -24 32 -27z m-873 -26 c-3 -8 -6 -5 -6 6 -1 11 2 17 5 13 3 -3 4
-12 1 -19z m934 -144 c20 -18 27 -40 8 -28 -8 4 -9 0 -4 -15 11 -37 -9 -22
-27 19 -9 22 -14 49 -10 62 7 23 7 23 10 2 2 -12 12 -30 23 -40z m-52 -40 c17
-65 6 -67 -13 -3 -19 61 -19 62 -7 55 5 -3 14 -27 20 -52z m68 -84 c1 -17 -1
-30 -5 -30 -4 0 -8 14 -9 30 -1 17 1 30 5 30 4 0 8 -14 9 -30z m28 -124 c7
-19 9 -40 5 -46 -4 -7 -10 2 -15 22 -18 73 -11 87 10 24z m45 -16 c0 -5 -2
-10 -4 -10 -3 0 -8 5 -11 10 -3 6 -1 10 4 10 6 0 11 -4 11 -10z m31 -35 c-1
-15 -24 -12 -29 3 -3 9 2 13 12 10 10 -1 17 -7 17 -13z m-31 -49 c0 -2 -7 -7
-16 -10 -8 -3 -12 -2 -9 4 6 10 25 14 25 6z m-378 -138 c-7 -7 -12 -8 -12 -2
0 6 3 14 7 17 3 4 9 5 12 2 2 -3 -1 -11 -7 -17z m-599 -74 c9 -10 -4 -34 -19
-34 -16 0 -13 -45 5 -92 14 -38 -1 -35 -38 7 -39 45 -39 66 0 99 31 27 41 30
52 20z m-63 -8 c0 -3 -4 -8 -10 -11 -5 -3 -10 -1 -10 4 0 6 5 11 10 11 6 0 10
-2 10 -4z m150 -57 c0 -5 -4 -9 -10 -9 -5 0 -10 7 -10 16 0 8 5 12 10 9 6 -3
10 -10 10 -16z m-3 -69 c-3 -11 -1 -20 4 -20 4 0 6 -7 2 -16 -5 -14 -7 -14
-14 -2 -8 14 -2 58 8 58 3 0 3 -9 0 -20z m994 -67 c-12 -20 -14 -14 -5 12 4 9
9 14 11 11 3 -2 0 -13 -6 -23z m-957 -188 c-6 -23 -8 -25 -16 -11 -6 11 -6 22
3 32 16 20 21 12 13 -21z m1036 -10 c0 -7 6 -18 14 -22 7 -4 18 -19 25 -33 9
-18 3 -15 -24 14 -36 40 -43 56 -25 56 6 0 10 -7 10 -15z m-253 -130 c4 -4 2
-5 -4 -1 -9 5 -13 1 -13 -11 0 -15 -2 -16 -10 -3 -5 8 -10 18 -10 22 0 9 28 4
37 -7z m-512 -45 c3 -5 1 -10 -4 -10 -6 0 -11 5 -11 10 0 6 2 10 4 10 3 0 8
-4 11 -10z m35 -52 c0 -17 -3 -28 -7 -24 -5 4 -8 20 -8 36 0 15 3 26 8 23 4
-2 7 -18 7 -35z m7 -75 c-3 -10 -5 -4 -5 12 0 17 2 24 5 18 2 -7 2 -21 0 -30z
m51 -113 c-2 -21 0 -36 4 -34 14 9 8 -13 -6 -25 -12 -10 -15 -7 -18 21 -3 37
15 122 20 94 2 -10 2 -35 0 -56z m273 9 c16 -11 29 -26 29 -33 0 -22 -47 -58
-71 -54 -17 2 -24 -3 -29 -22 -3 -14 -11 -25 -16 -25 -15 0 -44 -31 -36 -39 3
-4 -1 -4 -10 -1 -9 4 -19 12 -21 18 -3 7 -12 28 -20 48 -10 21 -12 41 -7 49 6
10 12 4 23 -22 18 -43 35 -55 44 -31 3 10 15 30 25 45 10 14 15 33 12 42 -7
19 12 46 33 46 8 0 28 -9 44 -21z m-336 -99 c-15 -57 -18 -53 73 -99 72 -36
72 -36 72 -16 0 9 9 15 24 15 13 0 31 3 40 6 23 9 21 -37 -3 -65 -11 -13 -22
-28 -24 -34 -3 -8 -18 -5 -48 11 -24 12 -52 22 -62 22 -21 0 -80 56 -85 80 -2
8 -7 16 -12 18 -13 5 -54 42 -46 42 4 0 16 -5 27 -10 16 -9 21 -7 30 17 7 20
7 33 0 46 -9 14 -8 17 8 17 18 0 18 -3 6 -50z m-111 4 c3 -8 2 -12 -4 -9 -6 3
-10 10 -10 16 0 14 7 11 14 -7z m-30 -80 c4 -10 1 -14 -6 -12 -15 5 -23 28
-10 28 5 0 13 -7 16 -16z m380 -189 c15 -19 22 -35 16 -35 -12 0 -59 50 -60
63 0 17 19 5 44 -28z"/>
<path d="M2458 1593 c3 -15 -1 -29 -9 -34 -10 -6 -4 -9 19 -9 29 0 32 3 32 30
0 17 -3 30 -7 31 -5 0 -15 2 -24 4 -12 2 -15 -3 -11 -22z"/>
<path d="M2410 1525 c0 -8 2 -15 4 -15 2 0 6 7 10 15 3 8 1 15 -4 15 -6 0 -10
-7 -10 -15z"/>
<path d="M2240 1396 c0 -2 7 -9 15 -16 9 -7 15 -8 15 -2 0 5 -7 12 -15 16 -8
3 -15 4 -15 2z"/>
<path d="M2290 4356 c0 -9 5 -16 10 -16 6 0 10 4 10 9 0 6 -4 13 -10 16 -5 3
-10 -1 -10 -9z"/>
<path d="M1550 3720 c-13 -9 -13 -10 0 -9 8 1 26 5 40 9 l25 8 -25 1 c-14 0
-32 -4 -40 -9z"/>
<path d="M1511 3673 c-10 -26 -10 -27 4 -9 8 11 15 23 15 28 0 15 -7 8 -19
-19z"/>
<path d="M1750 3406 c0 -2 8 -10 18 -17 15 -13 16 -12 3 4 -13 16 -21 21 -21
13z"/>
<path d="M3219 3173 c0 -5 -2 -17 -4 -28 -1 -11 -6 -49 -9 -84 -3 -35 -11 -69
-16 -76 -8 -9 -3 -14 17 -18 15 -3 33 -3 40 0 18 7 17 131 -2 177 -15 34 -24
45 -26 29z"/>
<path d="M1156 2978 c-20 -28 -21 -49 -2 -42 8 3 17 1 21 -5 3 -6 11 -11 16
-11 6 0 7 5 4 10 -3 6 1 10 10 10 9 0 13 -5 10 -10 -4 -6 5 -5 19 2 33 14 32
21 0 47 -34 27 -59 27 -78 -1z"/>
<path d="M1273 2913 c2 -10 8 -27 13 -38 7 -17 6 -18 -8 -7 -10 8 -19 9 -22 3
-7 -11 62 -71 81 -71 23 0 24 20 1 43 -32 32 -24 56 8 26 32 -30 31 -6 -1 33
-14 16 -25 25 -25 19 0 -7 -8 -7 -26 -1 -23 9 -26 8 -21 -7z"/>
<path d="M2800 2890 c0 -5 5 -10 11 -10 5 0 7 5 4 10 -3 6 -8 10 -11 10 -2 0
-4 -4 -4 -10z"/>
<path d="M2815 2850 c-3 -5 -1 -10 4 -10 6 0 11 5 11 10 0 6 -2 10 -4 10 -3 0
-8 -4 -11 -10z"/>
<path d="M2780 2829 c0 -5 5 -7 10 -4 6 3 10 8 10 11 0 2 -4 4 -10 4 -5 0 -10
-5 -10 -11z"/>
<path d="M2820 2726 c0 -2 7 -7 16 -10 8 -3 12 -2 9 4 -6 10 -25 14 -25 6z"/>
<path d="M1420 2610 c0 -5 7 -10 15 -10 8 0 15 5 15 10 0 6 -7 10 -15 10 -8 0
-15 -4 -15 -10z"/>
<path d="M1142 2445 c-9 -20 -9 -25 3 -25 7 0 17 5 20 10 18 28 81 -13 69 -45
-9 -21 23 -25 42 -4 16 18 16 20 0 38 -10 11 -31 23 -47 26 -16 4 -29 11 -29
16 0 21 -47 8 -58 -16z"/>
<path d="M3279 2437 c-10 -7 -16 -29 -17 -57 -1 -24 -7 -49 -12 -54 -13 -13
-13 -39 0 -31 6 3 10 -1 10 -10 0 -25 14 -15 59 43 39 48 41 54 27 73 -24 36
-49 49 -67 36z"/>
<path d="M1184 2409 c-9 -15 -2 -18 20 -9 17 6 18 7 3 13 -9 3 -19 2 -23 -4z"/>
<path d="M2691 2375 c0 -11 4 -38 8 -60 l9 -40 1 45 c0 25 -4 52 -9 60 -8 12
-10 12 -9 -5z"/>
<path d="M3080 2276 c-41 -81 -43 -87 -32 -124 7 -22 12 -50 13 -63 0 -15 3
-18 6 -9 3 8 28 61 56 118 50 100 51 104 35 130 -9 14 -20 28 -25 29 -5 2 -29
-35 -53 -81z"/>
<path d="M1880 2330 c-8 -5 -12 -12 -9 -15 4 -3 12 1 19 10 14 17 11 19 -10 5z"/>
<path d="M1981 2286 c2 -2 15 -9 29 -15 24 -11 24 -11 6 3 -16 13 -49 24 -35
12z"/>
<path d="M1560 2136 c0 -8 5 -18 10 -21 6 -3 10 1 10 9 0 8 -4 18 -10 21 -5 3
-10 -1 -10 -9z"/>
<path d="M1614 2124 c3 -9 6 -20 6 -25 0 -5 6 -9 14 -9 7 0 19 -7 26 -15 11
-13 9 -14 -14 -1 -15 7 -33 22 -41 32 -8 11 -15 14 -15 7 0 -6 12 -26 27 -43
14 -18 27 -39 28 -49 4 -29 17 -51 31 -51 8 0 14 -4 14 -8 0 -17 -13 -21 -31
-11 -14 7 -19 6 -19 -4 0 -10 -8 -13 -25 -9 -15 2 -25 0 -25 -7 0 -7 -4 -9
-10 -6 -5 3 -10 -3 -10 -14 0 -12 4 -21 8 -21 5 0 9 -6 9 -13 0 -17 33 -67 45
-67 5 0 18 5 29 10 22 12 20 52 -6 80 -18 20 -9 33 15 20 11 -6 17 -23 18 -50
2 -35 -2 -43 -27 -58 -20 -12 -27 -22 -22 -31 12 -18 54 5 113 63 l46 46 -15
40 c-9 22 -22 40 -30 40 -8 0 -12 4 -9 8 3 5 -4 16 -15 25 -10 9 -19 24 -19
32 0 8 -5 15 -11 15 -5 0 -17 16 -24 35 -18 42 -77 80 -61 39z m136 -204 c0
-5 -9 -10 -21 -10 -11 0 -17 5 -14 10 3 6 13 10 21 10 8 0 14 -4 14 -10z
m-132 -55 c-3 -3 -9 2 -12 12 -6 14 -5 15 5 6 7 -7 10 -15 7 -18z"/>
<path d="M1551 2084 c0 -11 3 -14 6 -6 3 7 2 16 -1 19 -3 4 -6 -2 -5 -13z"/>
<path d="M1780 2006 c0 -17 14 -29 23 -20 8 8 -3 34 -14 34 -5 0 -9 -6 -9 -14z"/>
<path d="M1831 1817 c-1 -11 -6 -15 -13 -11 -14 9 -2 -12 22 -41 10 -11 21
-30 25 -43 4 -13 9 -22 11 -19 3 2 -6 33 -20 68 -14 35 -25 56 -25 46z"/>
<path d="M1634 1714 c-5 -8 -19 -16 -31 -17 -13 -1 -23 -4 -23 -7 0 -9 57 -50
70 -50 5 0 10 -6 10 -14 0 -19 106 -110 119 -102 5 3 12 -1 15 -10 3 -8 11
-12 17 -8 8 5 6 10 -5 16 -19 11 -23 84 -5 90 7 2 -7 10 -30 16 -46 14 -57 42
-16 42 14 0 25 5 25 10 0 6 -20 10 -44 10 -25 0 -48 4 -51 10 -13 21 -41 29
-51 14z m49 -49 c-20 -15 -33 -11 -33 9 0 9 9 12 25 8 24 -4 24 -5 8 -17z"/>
<path d="M2962 1634 c-17 -12 -26 -12 -43 -4 -11 7 -31 9 -44 6 -20 -5 -23
-11 -21 -46 2 -22 5 -42 7 -44 7 -7 99 6 94 14 -2 4 7 17 20 28 41 35 29 75
-13 46z"/>
<path d="M2908 1478 c-8 -13 -20 -34 -27 -48 -12 -24 -11 -24 4 -5 19 23 48
75 41 75 -2 0 -10 -10 -18 -22z"/>
<path d="M1848 1412 c-31 -6 -3 -42 32 -42 17 0 30 4 30 9 0 14 -43 37 -62 33z"/>
<path d="M2384 1144 c3 -8 6 -23 6 -31 0 -21 10 -11 15 15 2 12 -3 23 -12 26
-11 5 -14 2 -9 -10z"/>
<path d="M2347 1135 c3 -8 9 -12 14 -9 12 7 11 11 -5 17 -10 4 -13 1 -9 -8z"/>
</g>
</svg>
